<?xml version="1.0" encoding="UTF-8"?>
<!DOCTYPE svg PUBLIC "-//W3C//DTD SVG 1.1//EN" "http://www.w3.org/Graphics/SVG/1.1/DTD/svg11.dtd">
<svg xmlns="http://www.w3.org/2000/svg" version="1.1" width="4168px" height="2132px" style="shape-rendering:geometricPrecision; text-rendering:geometricPrecision; image-rendering:optimizeQuality; fill-rule:evenodd; clip-rule:evenodd" xmlns:xlink="http://www.w3.org/1999/xlink">
<g><path style="opacity:0.997" fill="#b51a19" d="M 1548.5,360.5 C 1742.17,360.5 1935.83,360.5 2129.5,360.5C 2129.5,469.167 2129.5,577.833 2129.5,686.5C 2048.17,686.5 1966.83,686.5 1885.5,686.5C 1885.5,960.833 1885.5,1235.17 1885.5,1509.5C 1757.5,1509.5 1629.5,1509.5 1501.5,1509.5C 1501.5,1235.17 1501.5,960.833 1501.5,686.5C 1280.5,687.78 1059.5,689.28 838.5,691C 820.48,691.669 803.814,696.669 788.5,706C 774.64,716.907 769.473,731.073 773,748.5C 775.782,758.276 781.282,766.109 789.5,772C 806.925,782.708 825.592,790.708 845.5,796C 855.791,798.823 866.124,801.489 876.5,804C 923.922,813.237 971.255,822.904 1018.5,833C 1084.88,847.462 1149.22,868.129 1211.5,895C 1253.74,913.932 1292.08,938.599 1326.5,969C 1382.72,1023.31 1411.89,1089.81 1414,1168.5C 1416.91,1335.59 1342.75,1453.76 1191.5,1523C 1126.63,1550.8 1058.97,1567.47 988.5,1573C 853.209,1583.67 720.542,1569.67 590.5,1531C 495.168,1502.35 409.168,1457.01 332.5,1395C 327.845,1391.35 323.512,1387.35 319.5,1383C 386.909,1300.75 455.242,1219.25 524.5,1138.5C 654.838,1235.66 801.505,1279.49 964.5,1270C 979.568,1268.4 993.568,1263.74 1006.5,1256C 1021.41,1244.28 1026.58,1229.11 1022,1210.5C 1017.7,1199.2 1010.2,1190.7 999.5,1185C 985.063,1177.62 970.063,1171.62 954.5,1167C 939.253,1162.69 923.919,1158.69 908.5,1155C 835.749,1141.15 763.749,1124.15 692.5,1104C 643.342,1089.5 596.009,1070.5 550.5,1047C 417.458,974.405 362.624,862.572 386,711.5C 401.347,622.945 442.514,549.112 509.5,490C 592.51,420.015 688.177,377.349 796.5,362C 1047.33,361.833 1298,361.333 1548.5,360.5 Z"/></g>
<g><path style="opacity:0.997" fill="#b51a19" d="M 3016.5,360.5 C 3033.83,360.5 3051.17,360.5 3068.5,360.5C 3068.33,502.834 3068.5,645.167 3069,787.5C 3177.17,645.333 3285.33,503.167 3393.5,361C 3542.17,360.167 3690.83,360.333 3839.5,361.5C 3706.5,527.5 3573.5,693.5 3440.5,859.5C 3576.96,1075.43 3712.62,1291.76 3847.5,1508.5C 3694.83,1508.83 3542.17,1508.5 3389.5,1507.5C 3315.2,1386.7 3240.7,1266.03 3166,1145.5C 3133.67,1184.83 3101.33,1224.17 3069,1263.5C 3068.5,1345.17 3068.33,1426.83 3068.5,1508.5C 2940.5,1508.5 2812.5,1508.5 2684.5,1508.5C 2684.5,1126.5 2684.5,744.5 2684.5,362.5C 2795.33,362.141 2906,361.475 3016.5,360.5 Z"/></g>
<g><path style="opacity:0.997" fill="#b51a19" d="M 2196.5,364.5 C 2324.5,364.5 2452.5,364.5 2580.5,364.5C 2580.5,475.833 2580.5,587.167 2580.5,698.5C 2452.5,698.5 2324.5,698.5 2196.5,698.5C 2196.5,587.167 2196.5,475.833 2196.5,364.5 Z"/></g>
<g><path style="opacity:0.995" fill="#b51a19" d="M 2197.5,772.5 C 2325.83,772.5 2454.17,772.5 2582.5,772.5C 2582.5,1017.83 2582.5,1263.17 2582.5,1508.5C 2454.17,1508.5 2325.83,1508.5 2197.5,1508.5C 2197.5,1263.17 2197.5,1017.83 2197.5,772.5 Z"/></g>
</svg>
